<svg width="1321" height="853" viewBox="0 0 1321 853" fill="none" xmlns="http://www.w3.org/2000/svg">
<path d="M152.924 135.067L317.788 134.856C317.148 156.787 318.013 178.83 317.043 200.711C296.189 199.633 274.968 200.132 254.075 200.185C244.976 200.209 235.662 200.644 226.596 199.968C226.467 216.257 226.641 232.488 226.872 248.773C254.504 248.949 282.137 248.95 309.77 248.778C309.855 268.587 309.805 288.394 309.619 308.201C308.944 309.139 309.147 309.592 309.164 310.702L310.072 310.977L309.472 310.632L309.207 312.326C305.727 314.654 287.095 313.269 282.356 313.266C265.008 313.151 244.013 311.895 227.155 313.769C225.69 315.773 226.481 417.832 226.491 429.732C215.88 428.539 204.476 429.232 193.786 429.254C179.7 429.282 165.516 428.896 151.447 429.574C151.798 414.713 150.307 399.827 150.297 384.938C150.249 316.235 148.966 247.281 151.311 178.628C151.637 169.09 151.509 159.502 151.441 149.959C151.412 145.863 150.739 140.592 151.59 136.619C151.831 135.495 152.02 135.657 152.924 135.067Z" fill="white"/>
<path d="M96.8139 562.717C98.8269 546.673 98.8224 532.447 105.05 517.168C116.816 488.299 135.738 469.148 164.452 457.08C196.298 443.698 232.251 447.03 263.609 459.825C280.51 467.839 293.94 478.383 305.243 493.257C310.152 501.854 314.843 510.214 318.348 519.505C321.07 528.54 322.466 537.608 323.202 547.003C323.64 585.005 315.261 610.035 288.173 637.691C269.894 656.355 249.382 672.817 230.984 691.305C239.645 689.657 248.516 689.949 257.3 689.934L301.711 689.912C309.699 689.902 318.291 690.447 326.202 689.432C328.116 710.499 326.477 734.906 326.647 756.413L181.932 756.401C152.209 756.408 122.23 757.452 92.5469 756.138C102.97 741.387 118.427 726.591 131.046 713.571C152.594 691.338 174.193 668.815 194.213 645.203C199.996 638.382 206.187 631.718 211.426 624.471C217.206 616.134 223.306 607.841 228.087 598.881C231.683 594.841 233.597 589.093 235.649 584.162C237.522 579.66 238.877 574.789 240.401 570.152L241.406 566.425C243.069 558.177 243.001 550.12 241.961 541.815C240.705 538.296 239.428 535.036 237.542 531.789C235.851 529.243 234.261 526.749 232.05 524.62C230.278 522.954 228.613 521.243 226.468 520.062C219.406 515.737 210.266 514.534 202.227 516.395C198.266 517.311 194.625 518.984 191.672 521.816C190.368 522.699 189.063 524.065 188.056 525.28C180.064 534.929 179.031 551.036 180.098 563.013C163.942 562.247 147.753 562.427 131.583 562.385C120.04 562.355 108.318 561.854 96.8139 562.717Z" fill="#81B91D"/>
<path d="M489.859 451.595C492.811 451.496 495.764 451.479 498.718 451.542C501.672 451.605 504.622 451.75 507.569 451.975C510.515 452.2 513.452 452.505 516.381 452.89C519.312 453.276 522.229 453.741 525.133 454.286C528.037 454.83 530.923 455.454 533.792 456.157C536.662 456.859 539.511 457.64 542.338 458.499C545.165 459.356 547.967 460.291 550.742 461.303C553.518 462.313 556.264 463.4 558.981 464.562C590.795 478.328 614.29 503.785 627.025 535.809C619.161 538.003 611.255 541.81 603.73 544.987C587.71 551.751 571.723 559.048 555.301 564.781C552.428 560.786 550.177 556.088 547.695 551.831C539.203 537.265 528.801 526.756 512.245 521.576C495.846 516.443 476.368 517.883 461.069 525.921C441.042 536.439 428.339 555.908 421.962 577.083C413.886 603.891 416.078 637.491 429.523 662.263C440.656 682.775 455.568 694.237 477.894 700.848C494.399 705.734 513.091 702.384 528.05 694.157C544.405 685.162 549.691 668.942 554.585 652.255C534.067 651.194 513.384 651.804 492.843 651.89C492.976 632.04 493.396 612.094 492.748 592.255C508.768 592.577 524.825 592.342 540.85 592.322C574.817 592.441 608.784 592.374 642.749 592.122C643.953 637.108 634.225 685.612 603.787 720.19C579.021 748.324 544.127 763.12 507.112 765.376C465.453 767.918 421.006 759.38 388.972 730.838C357.846 703.107 340.518 665.493 338.256 623.971C335.797 578.814 344.694 535.546 375.792 501.091C405.34 468.352 446.591 453.733 489.859 451.595Z" fill="white"/>
<path d="M993.204 135.072C1007.06 133.852 1024.33 134.953 1038.69 134.961L1086.79 134.918C1102.86 134.901 1118.79 134.321 1134.59 137.825C1172.62 146.259 1205.67 171.309 1226.43 203.995C1241.69 228.018 1247.86 253.389 1248.02 281.643C1248.08 292.461 1247.51 302.873 1245.12 313.451C1239.94 336.357 1229.23 356.557 1214.88 375.017C1211.21 379.748 1207.09 385.236 1202 388.465C1201.81 388.943 1201.68 389.318 1201.34 389.711C1197.11 394.571 1190.33 398.904 1185.1 402.759C1146.59 431.13 1110.83 428.239 1065.66 428.269L993.509 428.311C994.943 421.852 993.682 412.915 993.71 406.221C993.878 381.229 993.797 356.238 993.467 331.247L993.364 199.193C993.364 177.837 993.704 156.421 993.204 135.072ZM1069.01 200.193C1070.8 206.579 1069.48 250.787 1069.47 262.149L1069.49 328.698C1069.49 339.414 1069.87 350.265 1069.49 360.967C1069.45 362.1 1069.06 362.97 1068.55 363.963C1097.05 363.148 1123.47 366.315 1145.02 343.081C1145.65 342.403 1146.31 341.653 1146.55 340.747C1156.29 334.989 1163.81 316.26 1166.56 305.499C1172.13 283.664 1170.34 258.587 1158.69 238.975C1148.39 221.646 1132.93 207.626 1112.99 202.67C1098.99 199.19 1083.35 200.12 1069.01 200.193Z" fill="white"/>
<path d="M799.485 453.553C850.139 451.517 881.675 457.198 923.151 487.476C952.426 508.848 972.466 546.69 977.825 582.076C984.115 623.608 976.237 668.217 950.955 702.357C949.686 704.078 948.382 705.772 947.044 707.44C945.705 709.107 944.331 710.746 942.921 712.355C941.514 713.966 940.073 715.546 938.601 717.095C937.126 718.645 935.62 720.162 934.082 721.648C932.544 723.136 930.976 724.59 929.379 726.011C927.781 727.431 926.154 728.819 924.497 730.173C922.841 731.525 921.157 732.843 919.446 734.125C917.735 735.408 915.997 736.654 914.232 737.865C912.469 739.076 910.681 740.248 908.868 741.382C907.055 742.518 905.219 743.615 903.361 744.674C901.503 745.733 899.624 746.752 897.722 747.731C895.821 748.711 893.9 749.652 891.96 750.552C890.019 751.451 888.06 752.31 886.083 753.129C884.107 753.946 882.114 754.722 880.106 755.458C878.098 756.192 876.075 756.884 874.037 757.534C871.998 758.184 869.948 758.791 867.884 759.355C858.693 761.849 849.26 763.185 839.853 764.573L838.054 764.753C792.818 769.031 748.194 758.875 712.772 729.535C680.858 703.1 662.644 666.436 658.981 625.357C658.356 618.35 658.684 611.208 658.889 604.187C659.937 568.441 669.932 536.094 693.24 508.403C694.896 506.457 696.599 504.552 698.349 502.69C700.097 500.829 701.89 499.01 703.728 497.234C705.566 495.458 707.446 493.728 709.367 492.043C711.288 490.359 713.25 488.723 715.251 487.136C717.251 485.546 719.29 484.007 721.366 482.518C723.443 481.027 725.554 479.589 727.701 478.203C729.846 476.815 732.024 475.481 734.236 474.2C736.447 472.918 738.688 471.691 740.958 470.518C743.228 469.346 745.526 468.229 747.851 467.169C750.176 466.108 752.526 465.105 754.901 464.16C757.275 463.214 759.67 462.326 762.087 461.496C764.504 460.665 766.94 459.895 769.395 459.184C771.848 458.472 774.319 457.82 776.806 457.228C779.291 456.638 781.79 456.107 784.304 455.637C786.816 455.167 789.338 454.758 791.869 454.411C794.401 454.063 796.94 453.777 799.485 453.553ZM814.154 526.996C790.851 529.333 770.989 538.926 756.035 557.212C742.71 573.504 735.509 596.224 737.668 617.229C739.99 639.81 751.564 659.754 769.115 673.975C786.443 688.013 803.811 692.068 825.863 691.698C845.498 690.054 866.556 681.159 879.516 665.878C894.872 647.772 903.221 624.604 901.012 600.832C898.93 578.412 887.274 558.422 870.021 544.267C855.055 531.984 833.473 525.375 814.154 526.996Z" fill="white"/>
<path d="M812.335 126.67C822.002 126.681 831.912 126.431 841.527 127.417C843.66 127.639 845.788 127.904 847.909 128.212C850.033 128.521 852.148 128.872 854.257 129.266C856.363 129.66 858.462 130.096 860.554 130.575C862.644 131.054 864.723 131.576 866.791 132.139C868.861 132.703 870.918 133.308 872.963 133.955C875.008 134.602 877.039 135.29 879.055 136.019C881.072 136.749 883.073 137.518 885.057 138.329C887.042 139.139 889.01 139.99 890.962 140.88C892.913 141.77 894.846 142.7 896.759 143.669C898.672 144.637 900.564 145.645 902.435 146.69C904.309 147.735 906.159 148.818 907.987 149.939C909.815 151.06 911.62 152.217 913.401 153.411C915.183 154.604 916.939 155.834 918.67 157.099C920.402 158.364 922.106 159.663 923.784 160.998C925.464 162.332 927.115 163.699 928.738 165.101C930.361 166.502 931.955 167.935 933.519 169.401C963.522 197.443 978.06 235.233 979.381 275.729C980.797 319.17 968.521 358.688 938.45 390.709C909.969 421.042 869.008 437.669 827.721 439.017C780.813 439.895 739.665 428.819 704.736 396.005C674.395 367.505 659.086 328.032 657.885 286.821C656.687 245.775 671.138 204.497 699.532 174.629C729.392 143.218 769.565 127.813 812.335 126.67ZM815.367 200.801C793.378 201.966 773.718 210.844 758.879 227.279C744.543 243.154 736.237 264.918 737.451 286.363C737.522 287.729 737.627 289.092 737.766 290.453C737.904 291.815 738.077 293.173 738.284 294.525C738.489 295.878 738.727 297.224 738.997 298.565C739.269 299.906 739.573 301.239 739.91 302.565C740.247 303.892 740.616 305.21 741.016 306.517C741.418 307.825 741.851 309.122 742.317 310.409C742.782 311.695 743.278 312.969 743.805 314.232C744.332 315.496 744.89 316.745 745.479 317.979C746.068 319.215 746.687 320.435 747.336 321.639C747.984 322.844 748.662 324.032 749.37 325.203C750.075 326.376 750.81 327.53 751.574 328.665C752.338 329.801 753.128 330.917 753.946 332.012C754.765 333.109 755.609 334.186 756.48 335.242C757.351 336.297 758.247 337.33 759.17 338.341C760.09 339.353 761.036 340.342 762.007 341.308C762.977 342.271 763.971 343.212 764.986 344.129C777.831 355.538 793.048 362.455 810.116 364.464C813.28 364.834 816.801 365.437 819.981 365.207C820.864 365.142 821.692 365.009 822.557 364.826C828.337 364.196 834.649 364.076 840.301 362.81C855.532 359.398 871.89 348.474 881.65 336.41C896.091 318.557 903.319 296.026 900.754 273.133C898.292 251.17 886.023 231.088 868.777 217.537C853.371 205.429 834.904 199.767 815.367 200.801Z" fill="white"/>
<path d="M476.486 126.666C486.25 126.698 496.306 126.407 506.015 127.382C508.099 127.601 510.176 127.861 512.248 128.162C514.321 128.463 516.387 128.804 518.445 129.186C520.505 129.568 522.555 129.99 524.597 130.453C526.64 130.916 528.673 131.419 530.694 131.961C532.717 132.504 534.729 133.086 536.729 133.708C538.729 134.33 540.715 134.991 542.688 135.691C544.663 136.391 546.622 137.129 548.565 137.906C550.51 138.683 552.439 139.499 554.352 140.352C556.265 141.204 558.16 142.095 560.036 143.022C561.914 143.95 563.773 144.914 565.613 145.914C567.451 146.915 569.27 147.951 571.07 149.024C572.868 150.096 574.644 151.203 576.399 152.345C578.155 153.487 579.887 154.663 581.595 155.874C583.305 157.084 584.989 158.327 586.649 159.604C588.309 160.88 589.942 162.189 591.55 163.53C593.158 164.871 594.739 166.243 596.294 167.646C625.361 193.951 643.004 233.07 644.823 272.127C646.767 313.889 635.899 355.236 607.185 386.684C576.581 420.206 537.137 437.051 492.115 439.21C489.761 439.395 487.391 439.485 485.032 439.575C442.322 441.229 399.898 424.064 368.812 395.172C340.082 368.468 324.193 328.645 322.849 289.812C321.423 248.613 333.945 207.418 362.492 176.998C393.127 144.35 431.952 128.008 476.486 126.666ZM477.929 200.772C455.372 202.816 435.597 212.717 421.081 230.21C405.599 248.865 401.104 270.466 403.363 294.212C405.329 314.9 417.724 334.118 433.528 347.126C451.307 361.755 470.023 365.054 492.533 363.978C512.896 362.487 532.425 352.129 545.698 336.672C546.579 335.645 547.433 334.597 548.26 333.528C549.089 332.459 549.891 331.37 550.667 330.261C551.441 329.152 552.187 328.025 552.906 326.879C553.625 325.735 554.315 324.573 554.978 323.392C555.64 322.213 556.272 321.018 556.874 319.807C557.476 318.597 558.049 317.372 558.593 316.133C559.135 314.894 559.646 313.642 560.126 312.378C560.607 311.114 561.055 309.839 561.472 308.553C561.891 307.266 562.277 305.97 562.631 304.666C562.984 303.36 563.305 302.047 563.594 300.726C563.883 299.404 564.139 298.076 564.362 296.744C564.586 295.41 564.776 294.071 564.933 292.727C565.089 291.384 565.214 290.038 565.305 288.689C565.395 287.34 565.453 285.989 565.478 284.637C565.501 283.284 565.492 281.933 565.45 280.582C565.407 279.23 565.331 277.88 565.223 276.532C563.496 255.222 553.859 234.091 537.349 220.14C519.989 205.468 500.391 200.125 477.929 200.772Z" fill="white"/>
</svg>
