<svg width="1394" height="424" viewBox="0 0 1394 424" fill="none" xmlns="http://www.w3.org/2000/svg">
<path d="M650.696 172.248C650.913 173.403 651.137 174.575 651.255 175.745C651.493 178.145 650.767 179.229 649.317 180.979L648.011 180.81C647.745 180.411 647.496 180.004 647.286 179.571C645.511 175.909 645.714 164.937 647.147 161.074C647.435 160.301 648.058 160.235 648.776 159.898C649.533 160.318 650.312 160.789 650.917 161.421C652.713 163.295 653.303 165.237 653.299 167.766L653.762 170.715L650.696 172.248Z" fill="#FEFEFE"/>
<path d="M945.531 172.871C945.737 173.393 945.923 173.922 946.089 174.459C946.84 176.965 946.626 178.378 945.442 180.604L943.963 180.95C942.974 179.965 942.291 179.446 941.854 178.075C940.417 173.553 940.424 165.653 942.704 161.391C943.337 160.202 943.764 160.253 945.005 159.855C945.57 160.186 946.125 160.557 946.562 161.053C948.003 162.687 948.568 165.526 948.461 167.644L949.219 170.373C947.96 171.171 946.744 172.004 945.531 172.871Z" fill="#FEFEFE"/>
<path d="M890.721 173.133C890.895 173.607 891.051 174.08 891.176 174.57C891.915 177.441 891.001 179.006 889.583 181.339L889.198 181.107L890.536 180.208L890.635 179.409L889.024 181.228L888.747 181.089C888.199 180.314 887.78 179.549 887.534 178.628C886.571 175.029 885.639 162.915 887.595 159.747C889.515 159.888 890.255 160.494 891.581 161.907C893.331 163.769 895.151 166.926 895.127 169.497L895.205 171.41L890.721 173.133Z" fill="#FEFEFE"/>
<path d="M956.249 274.046C957.689 274.939 959.161 275.86 960.456 276.963C963.287 279.379 965.968 283.119 966.249 286.919L966.38 289.132L963.511 290.544C962.213 291.978 962.956 294.601 962.081 296.415C961.409 297.806 961.142 298.116 959.695 298.593C955.385 293.216 959.442 281.08 956.249 274.046Z" fill="#FEFEFE"/>
<path d="M837.937 260.337C848.424 260.301 860.021 259.23 870.376 260.451L871.283 263.742C864.181 265.955 845.696 265.044 838.207 263.841L839.281 262.066L837.937 260.337Z" fill="#FEFEFE" fill-opacity="0.968627"/>
<path d="M1176.96 173.085C1175.23 175.083 1176.4 178.703 1173.9 181.569L1172.51 181.557C1170.69 178.962 1170.61 173.164 1170.59 170.032C1170.57 166.774 1170.72 163.024 1173.12 160.573C1174.2 160.499 1174.89 160.205 1175.77 160.91C1178.14 162.817 1179.32 166.515 1179.62 169.472L1179.97 171.824L1176.96 173.085Z" fill="#FEFEFE"/>
<path d="M1123.64 174.711C1122.89 173.464 1122.58 173.273 1121.31 172.538C1119.53 174.793 1121.75 178.859 1119.67 181.475L1118.02 180.53C1116.62 178.377 1115.7 176.027 1115.51 173.444C1115.21 169.462 1115.05 162.599 1117.7 159.506L1119.49 160.367C1121.89 163.721 1126.01 168.184 1127.11 172.121L1127.17 174.164C1126 174.385 1124.83 174.63 1123.64 174.711Z" fill="#FEFEFE"/>
<path d="M1127.11 172.121C1133.64 175.352 1141.64 179.179 1149.11 176.787C1151.15 176.132 1153.46 174.677 1154.39 172.652C1154.48 172.46 1154.54 172.252 1154.61 172.052C1155.42 173.52 1155.84 175.003 1157.4 175.709L1157.22 176.674C1154.96 179.372 1152.26 180.709 1148.8 181.317C1139.59 182.936 1131.1 179.881 1123.64 174.711C1124.83 174.63 1126 174.385 1127.17 174.164L1127.11 172.121Z" fill="#FEFEFE" fill-opacity="0.980392"/>
<path d="M964.268 110.844C966.402 110.942 968.948 110.925 970.961 111.67C974.016 112.801 978.062 117.567 981.06 114.823C982.17 113.809 982.863 112.499 983.599 111.21L985.036 111.158C986.907 114.385 985.985 121.819 985.022 125.375C984.798 126.199 984.353 126.931 983.852 127.611C976.153 125.854 977.469 114.27 962.504 114.075L964.471 112.573L964.268 110.844Z" fill="#FEFEFE" fill-opacity="0.984314"/>
<path d="M1179.62 169.472C1187.56 174.349 1194.96 179.293 1204.85 176.91C1206.74 176.455 1209 174.892 1209.9 173.142C1210.37 172.238 1210.59 171.43 1210.5 170.419C1211.19 171.708 1212.17 174.342 1213.46 174.864L1213.07 176.482C1210.82 178.737 1208.55 180.46 1205.38 181.166C1194.32 183.625 1185.77 178.8 1176.96 173.085L1179.97 171.823L1179.62 169.472Z" fill="#FEFEFE" fill-opacity="0.976471"/>
<path d="M799.957 287.766C800.853 290.117 800.981 290.395 799.975 292.708L801.792 293.12L801.454 294.038C799.086 295.871 796.629 297.216 793.713 297.977C783.45 300.656 772.628 298.344 763.653 293.096C765.783 292.861 767.917 293.921 769.929 293.288L768.009 290.356C769.138 290.837 770.276 291.299 771.423 291.74C778.613 294.497 788.051 295.999 795.292 292.594C797.625 291.494 799.083 290.121 799.957 287.766Z" fill="#FEFEFE" fill-opacity="0.980392"/>
<path d="M653.299 167.766L653.769 168.001C661.937 172.164 668.729 180.475 679.323 177.158C681.336 176.529 683.925 174.813 684.881 172.881C685.056 172.534 685.088 172.404 685.201 172.067C686.016 173.526 686.442 175.002 687.979 175.722L687.73 176.857C686.151 178.359 684.447 180.03 682.378 180.816C675.482 183.433 664.796 180.89 658.648 177.381C656.03 175.888 654.046 173.806 651.251 172.502L650.696 172.248L653.762 170.716L653.299 167.766Z" fill="#FEFEFE" fill-opacity="0.976471"/>
<path d="M895.127 169.497C903.117 174.376 910.432 179.273 920.361 176.852C922.242 176.394 924.493 174.876 925.404 173.124C925.873 172.216 926.101 171.405 926.005 170.389L927.921 174.177L929.959 174.002C929.212 176.516 927.537 178.003 925.375 179.478C918.999 183.826 906.627 181.404 900.244 178.082C897.211 176.505 894.682 173.756 891.215 173.201C891.051 173.174 890.884 173.155 890.721 173.132L895.205 171.41L895.127 169.497Z" fill="#FEFEFE" fill-opacity="0.976471"/>
<path d="M997.987 285.104C999.1 287.089 999.584 288.658 999.897 290.911L1000.88 291.295L1000.57 293.045C997.984 296.031 995.79 297.724 991.86 298.525C980.875 300.759 972.319 296.312 963.511 290.544L966.381 289.132L966.249 286.919C974.905 290.637 974.599 294.736 987.123 294.686C990.544 294.675 993.802 294.088 996.288 291.615C997.379 289.391 998.414 287.641 997.987 285.104Z" fill="#FEFEFE" fill-opacity="0.976471"/>
<path d="M948.462 167.644L949.002 167.957C956.783 172.522 963.604 179.776 973.788 177.351C975.901 176.848 978.543 175.214 979.688 173.342C979.944 172.923 980.147 172.487 980.342 172.037C981.164 173.504 981.594 175.001 983.144 175.713C982.746 177.578 980.993 178.767 979.453 179.86C973.369 184.173 960.492 180.904 954.486 177.807C951.573 176.307 949.336 173.473 946.008 172.937C945.848 172.911 945.691 172.893 945.531 172.871C946.744 172.003 947.96 171.171 949.219 170.373L948.462 167.644Z" fill="#FEFEFE" fill-opacity="0.980392"/>
<path d="M1062.19 117.995L1062.55 115.845C1060.1 113.61 1057.37 114.485 1054.48 113.009L1055.46 111.093L1054.7 112.151C1063.5 108.904 1089.23 111.133 1099.29 111.756C1099.84 112.549 1100.31 113.398 1100.56 114.342C1101.65 118.559 1101.59 123.857 1099.51 127.695L1098.37 127.732C1096.32 123.963 1097.39 119.172 1094.77 115.847C1094.66 115.71 1094.55 115.579 1094.44 115.445C1087.37 115.03 1075.83 113.493 1069.26 115.965L1070.67 113.069C1068.62 112.203 1066.62 112.76 1064.43 112.996C1064.09 115.683 1064.15 116.123 1062.19 117.995Z" fill="#FEFEFE" fill-opacity="0.968627"/>
<path d="M834.594 117.988L835.035 116.217L834.128 114.746C832.07 114.312 830.004 113.924 827.93 113.584L827.336 112.146C833.14 109.044 863.701 111.238 871.763 111.758C872.371 112.695 872.847 113.646 873.089 114.747C873.822 118.061 874.327 126.223 872.36 129.008C867.399 126.255 870.433 119.682 867.14 115.797C867.04 115.681 866.937 115.571 866.834 115.458C859.8 115.038 848.193 113.486 841.671 115.985L843.026 113.42C841.212 112.085 840.7 112.229 838.477 112.602C837.738 112.726 837.194 113.041 836.635 113.522C836.401 115.909 836.294 116.299 834.594 117.988Z" fill="#FEFEFE" fill-opacity="0.968627"/>
<path d="M787.55 263.927C796.882 263.991 806.212 263.953 815.541 263.813C813.428 267.289 810.381 268.641 806.725 270.107C808.741 275.238 809.168 283.692 806.857 288.776C805.871 290.946 804.371 292.245 802.116 293.021C802.01 293.056 801.899 293.088 801.793 293.12L799.975 292.708C800.982 290.395 800.854 290.117 799.958 287.765C802.013 283.247 802.113 274.636 800.381 269.933C800.224 269.506 800.032 269.1 799.83 268.698C796.295 266.368 791.569 265.25 787.55 263.927Z" fill="#FEFEFE"/>
<path d="M1015.93 176.534C1023.27 176.629 1032.97 178.194 1039.95 176.398C1042.04 171.58 1042.58 163.586 1045.58 159.62L1046.5 159.816C1047.76 163.236 1048.72 176.607 1047.4 179.816C1047.3 180.071 1046.99 180.437 1046.85 180.632C1038.47 180.809 1004.86 183.256 999.456 179.609L999.833 178.237C1004.45 179.134 1013.24 180.019 1017.59 178.427L1015.93 176.534Z" fill="#FEFEFE" fill-opacity="0.980392"/>
<path d="M1071.05 176.668C1076.84 176.542 1093.32 178.467 1097.53 175.078C1098.86 170.49 1098.56 164.276 1100.87 160.268L1102.25 159.965C1104.54 162.348 1104.24 166.268 1104.18 169.354C1104.12 172.796 1104.51 177.57 1102.63 180.513C1095.01 180.994 1059.32 182.956 1054.7 179.742C1055.2 178.43 1055.17 178.383 1056.41 177.733C1056.58 177.85 1056.74 177.974 1056.92 178.083C1059.48 179.657 1069.21 179.4 1072.12 178.571L1071.05 176.668Z" fill="#FEFEFE" fill-opacity="0.980392"/>
<path d="M843.488 176.647C849.135 176.537 865.938 178.446 869.903 174.938C871.23 170.455 870.927 163.978 873.402 160.202L874.971 160.083C877.556 163.791 876.841 174.09 875.998 178.592C875.863 179.307 875.454 179.928 875.017 180.493C867.204 181.065 832.087 183.033 827.077 179.777L827.418 178.468L828.808 177.721C828.947 177.818 829.079 177.92 829.221 178.01C831.853 179.693 840.643 179.292 843.705 178.519L843.488 176.647Z" fill="#FEFEFE" fill-opacity="0.980392"/>
<path d="M701.506 111.664C715.162 110.796 742.43 108.885 755.197 111.664C757.16 115.311 756.904 124.05 755.94 128.057C755.808 128.607 755.499 128.917 755.14 129.33L753.646 128.95C751.466 124.882 752.526 118.461 749.724 115.279C744.471 115.074 736.139 113.653 731.424 115.987C732.366 114.641 732.679 114.471 732.58 112.863L730.485 112.206C727.551 112.848 726.371 112.812 724.344 115.151C720.802 113.584 710.791 115.661 706.734 116.107C707.875 119.679 706.908 125.553 705.105 128.823C704.341 130.212 702.936 131.357 701.713 132.339C702.616 127.456 704.213 115.914 701.506 111.664Z" fill="#FEFEFE" fill-opacity="0.968627"/>
<path d="M895.219 228.788C912.99 228.178 930.762 228.138 948.536 228.667C951.021 232.542 950.908 240.458 949.997 244.87C949.812 245.767 949.432 246.517 948.938 247.282L947.561 247.133C944.702 243.073 946.537 236.765 943.283 233.235C939.404 232.755 930.794 230.987 927.53 233.193C926.747 233.723 926.114 234.627 925.599 235.406C925.641 233.406 926.47 231.972 927.377 230.24C923.835 230.286 918.387 229.468 915.844 231.83C911.012 232.499 906.15 232.873 901.314 233.492C901.968 237.455 900.841 242.871 898.946 246.368L897.633 246.92C894.166 241.59 898.117 234.175 895.219 228.788Z" fill="#FEFEFE" fill-opacity="0.972549"/>
<path d="M653.296 234.189C654.747 235.004 655.81 235.175 656.272 236.861C657.414 241.024 655.166 246.058 656.685 249.994C656.756 246.158 655.892 238.946 657.688 235.769C657.759 235.915 657.83 236.064 657.905 236.21C661.002 241.963 660.718 285.848 658.676 293.376C662.296 294.412 664.853 294.291 668.338 296.283L668.441 297.347C667.46 297.696 666.482 297.97 665.444 298.08C661.731 298.472 649.185 299.329 646.383 297.12C648.513 295.739 652.926 293.508 654.11 291.299C655.202 289.253 654.363 237.469 653.296 234.189Z" fill="#FEFEFE" fill-opacity="0.976471"/>
<path d="M915.845 231.83C918.387 229.467 923.835 230.286 927.377 230.24C926.47 231.972 925.642 233.406 925.599 235.406C926.058 236.16 926.445 236.929 926.687 237.779C928.316 243.504 927.872 288.911 925.315 293.131C929.401 293.931 933.817 294.497 936.684 297.781C935.795 297.998 934.916 298.158 934.002 298.198C928.757 298.425 914.589 300.233 910.742 296.692C912.712 294.661 915.5 294.839 918.053 293.611C918.185 293.547 918.313 293.48 918.441 293.416C918.635 292.785 918.805 292.148 918.949 291.505C919.902 287.225 920.407 235.021 918.835 232.467L915.845 231.83Z" fill="#FEFEFE"/>
<path d="M724.344 115.15C726.371 112.812 727.551 112.848 730.485 112.206L732.58 112.862C732.679 114.47 732.366 114.64 731.424 115.986C732.078 116.884 732.612 117.846 732.846 118.942C734.255 125.5 734.756 170.566 731.748 175.547C734.294 176.157 740.151 177.134 741.555 179.386C741.481 179.453 741.413 179.524 741.335 179.588C737.124 183.015 718.071 180.579 711.976 180.097C716.04 178.897 721.865 177.954 724.923 175.003C726.086 167.85 726.673 120.408 724.344 115.15Z" fill="#FEFEFE"/>
<path d="M1062.19 117.996C1064.15 116.123 1064.08 115.684 1064.43 112.996C1066.62 112.761 1068.62 112.203 1070.67 113.069L1069.26 115.965C1072.37 121.353 1072.04 135.514 1070.4 141.484C1070.26 141.987 1070.11 142.472 1069.94 142.966C1076.62 142.817 1085.31 142.186 1091.6 144.544L1092.35 145.734C1088.97 148.424 1076.73 147.214 1072.23 146.703C1071.47 146.617 1070.72 146.487 1069.95 146.472C1073.27 156.152 1068.7 168.832 1071.05 176.668L1072.12 178.571C1069.21 179.4 1059.48 179.657 1056.92 178.083C1056.74 177.974 1056.58 177.85 1056.41 177.733C1059.18 177.212 1060.78 177.169 1062.97 175.253C1063.88 167.909 1064.52 123.044 1062.19 117.996Z" fill="#FEFEFE"/>
<path d="M834.594 117.988C836.294 116.299 836.401 115.909 836.636 113.522C837.194 113.041 837.738 112.726 838.478 112.602C840.7 112.229 841.212 112.084 843.026 113.419L841.671 115.985C844.751 121.2 844.463 134.947 842.962 140.986C842.795 141.654 842.589 142.305 842.368 142.956C848.026 142.793 860.824 142.17 865.739 144.991C863.865 146.867 862.983 147.204 860.263 147.196C854.345 147.176 848.264 147.08 842.375 146.492C845.732 156.239 841.067 168.298 843.488 176.647L843.705 178.519C840.643 179.292 831.853 179.693 829.221 178.01C829.079 177.92 828.947 177.818 828.809 177.721C831.6 177.199 833.183 177.166 835.37 175.228C836.419 167.391 837.276 123.829 834.594 117.988Z" fill="#FEFEFE"/>
<path d="M994.723 112.167C1002.6 110.461 1013.66 110.063 1021.55 111.651C1022.84 111.909 1022.77 112.037 1023.47 113.111C1021.19 115.27 1017.88 115.656 1014.91 116.324C1018.37 125.091 1015.31 164.436 1015.93 176.534L1017.59 178.427C1013.24 180.019 1004.45 179.133 999.833 178.237C1002.32 177.669 1004.78 177.026 1007.22 176.309C1009.64 172.771 1008.16 124.063 1007.92 116.2C1006.18 114.078 997.614 112.89 994.723 112.167Z" fill="#FEFEFE"/>
<path d="M947.263 115.534C952.369 113.427 958.529 109.396 964.268 110.843L964.471 112.573L962.504 114.075C958.571 115.302 954.023 116.523 951.921 120.451C950.356 123.378 949.98 127.619 951.071 130.759C952.344 134.427 955.996 136.838 959.396 138.344C968.916 142.566 984.741 144.177 989.118 155.247C990.857 159.639 990.48 165.647 988.5 169.949C987.404 172.334 985.69 174.772 983.144 175.713C981.593 175.001 981.163 173.504 980.342 172.037C982.138 170.015 983.219 167.425 983.645 164.777C986.071 149.72 954.229 147.262 946.427 136.358C940.705 128.358 945.94 123.657 947.202 115.942C947.227 115.806 947.241 115.67 947.263 115.534Z" fill="#FEFEFE"/>
<path d="M817.084 229.56C825.092 228.094 836.529 227.464 844.53 229.122L844.907 229.927C843.438 230.884 841.746 231.855 840.437 233.018C836.529 236.488 838.19 254.676 837.937 260.337L839.281 262.066L838.207 263.842C835.572 272.473 841.561 284.777 836.675 293.088C839.797 293.917 843.2 294.529 845.906 296.369C845.312 297.148 845.302 297.354 844.37 297.575C838.833 298.895 826.728 300.151 821.785 297.088L822.077 295.828C824.58 295.143 827.087 294.47 829.598 293.811C831.924 284.24 830.999 244.771 829.993 233.67C828.04 231.392 820.124 230.311 817.084 229.56Z" fill="#FEFEFE"/>
<path d="M870.376 260.451L872.581 258.97C873.42 254.69 874.306 236.103 872.577 232.67C872.442 232.399 872.133 232.083 871.951 231.873C869.555 231.599 866.994 231.769 865.109 230.24L865.525 229.161C871.88 228.009 880.675 227.646 887.04 228.788L888.278 229.919C886.539 232.261 882.719 232.997 880.042 233.894C881.919 242.134 882.517 286.702 879.384 293.01C883.039 293.964 887.232 294.526 889.529 297.849C883.043 298.706 870.618 299.934 864.676 297.497L864.569 296.184C867.03 294.419 870.422 295.173 872.471 293.725C873.303 287.84 874.949 268.357 871.574 264.058C871.486 263.945 871.382 263.845 871.283 263.742L870.376 260.451Z" fill="#FEFEFE"/>
<path d="M720.062 228.599C726.456 228.446 736.004 227.137 741.854 229.275C741.587 232.478 735.659 232.25 735.079 237.473C733.589 250.826 738.511 282.592 733.575 293.031C736.754 293.832 740.438 294.376 743.098 296.383L742.707 297.5L739.859 298.333C734.461 298.457 722.42 300.076 718.494 296.604L718.899 297.707L718.536 296.557C720.012 294.753 724.223 294.323 726.463 293.707C728.732 285.926 727.562 250.371 727.544 240.053C727.526 230.361 723.437 234.438 719.219 230.211L720.062 228.599Z" fill="#FEFEFE"/>
<path d="M763.653 293.095C757.65 288.214 753.966 281.059 752.387 273.565C750.097 262.713 751.331 250.513 757.501 241.095C761.733 234.644 768.027 229.884 775.652 228.347C786.117 226.233 793.532 229.499 802.045 235.132C804.115 234.495 804.261 229.713 806.344 227.888L807.539 228.87C808.546 233.395 808.571 240.152 807.628 244.728C807.258 246.539 807.191 247.026 805.662 248.065C800.235 245.468 798.418 236.993 792.618 233.975C787.774 231.453 780.004 231.424 774.926 233.21C769.446 235.135 765.389 239.334 762.903 244.489C758.276 254.082 757.377 270.441 761.79 280.212C763.426 283.844 766.697 286.645 768.009 290.356L769.93 293.287C767.917 293.921 765.783 292.86 763.653 293.095Z" fill="#FEFEFE"/>
<path d="M958.145 245.158C963.297 237.733 964.848 229.436 975.296 227.5C979.993 226.625 986.604 227.916 990.562 230.724C992.614 232.179 994.595 233.751 996.64 235.224L997.881 234.684C998.261 232.57 998.617 230.507 999.321 228.468C1000.81 228.937 1000.81 229.4 1001.6 230.699C1002.13 236 1002.18 244.337 998.951 248.72C997.774 242.931 993.962 237.808 989.079 234.531C985.502 232.129 981.156 230.716 976.85 231.659C973.034 232.495 970.2 234.534 968.166 237.843C966.942 239.836 966.249 242.152 964.332 243.6L964.745 244.034C968.013 247.521 968.603 251.847 972.885 254.598C982.703 260.903 1006.56 261.251 1005.65 277.839C1005.63 278.294 1005.52 278.643 1005.37 279.073C1005.92 282.464 1005.42 286.346 1003.37 289.207C1002.72 290.121 1001.84 290.729 1000.88 291.295L999.897 290.911C999.584 288.659 999.1 287.09 997.987 285.104C999.232 282.18 999.886 279.689 998.635 276.625C996.149 270.545 988.059 267.599 982.444 265.4C978.023 263.671 973.126 262.219 968.994 259.903C966.437 258.473 964.215 256.348 961.686 254.982C961.939 250.912 960.694 248.268 958.145 245.158Z" fill="#FEFEFE"/>
<path d="M1171.44 127.708L1171.62 127.481C1177.85 119.27 1175.59 112.538 1188.95 110.709C1195.07 109.871 1201.79 111.134 1206.75 114.938C1208.34 116.162 1209.19 117.978 1211.23 117.769C1211.63 115.934 1211.69 112.505 1212.57 110.999C1214.13 111.481 1214.14 111.95 1214.98 113.296C1215.51 118.596 1215.55 126.931 1212.31 131.311C1212.3 131.217 1212.28 131.123 1212.26 131.03C1211.22 125.955 1207.24 119.668 1202.89 116.813C1199.26 114.432 1194.61 113.781 1190.41 114.788C1186.69 115.681 1183.3 117.968 1181.37 121.316C1179.9 123.879 1179.26 126.926 1180.07 129.811C1181.11 133.486 1184 136.01 1187.25 137.772C1196.89 142.991 1214.81 143.412 1218.45 156.195C1218.91 157.822 1219.31 160.015 1218.74 161.644C1219.35 165.248 1218.57 169.563 1216.42 172.582C1215.66 173.647 1214.6 174.282 1213.46 174.865C1212.17 174.342 1211.19 171.708 1210.5 170.419C1212.35 167.598 1213.35 164.685 1212.66 161.277C1211.82 157.129 1208.21 154.202 1204.79 152.07C1198.36 148.06 1190.48 146.48 1183.67 143.202C1180.54 141.695 1178.07 139.007 1175.06 137.552C1175.29 133.466 1174 130.826 1171.44 127.708Z" fill="#FEFEFE"/>
<path d="M887.072 127.172C893.089 119.471 892.36 111.998 904.422 110.579C918.298 108.947 918.572 116.281 926.417 117.385C928.053 114.598 925.954 112.816 929.034 110.979C930.456 112.209 930.617 112.638 930.784 114.506C931.068 117.668 930.979 126.308 929.372 128.893C919.262 124.173 919.927 109.377 903.01 115.242C900.205 116.214 898.11 117.798 896.84 120.526C895.425 123.564 894.653 127.868 895.909 131.074C897.292 134.599 900.397 136.457 903.729 137.844C912.317 141.421 929.724 145.299 933.568 154.726C934.425 156.825 935.108 159.75 934.247 161.933C934.895 165.59 934.514 168.927 932.352 172.052C931.719 172.966 930.951 173.511 929.959 174.002L927.921 174.177L926.004 170.389C927.821 167.528 928.789 164.226 927.953 160.836C926.932 156.692 923.031 153.594 919.461 151.575C913.103 147.979 905.756 146.352 899.187 143.207C896.03 141.694 893.54 139.017 890.514 137.543C890.841 133.48 889.419 130.407 887.072 127.172Z" fill="#FEFEFE"/>
<path d="M652.151 115.542C656.361 113.518 667.108 108.238 671.617 109.962C676.379 111.783 680.333 115.286 685.34 116.906C686.485 114.832 687.331 111.196 689.511 110.54C691.645 113.481 690.856 120.84 690.226 124.564C690.034 125.706 689.607 126.689 688.996 127.666C686.624 127.497 685.408 125.598 683.882 123.842C680.059 119.433 675.895 113.785 669.515 113.36C665.685 113.105 662.115 115.154 659.398 117.702C657.158 119.805 655.319 122.826 655.227 125.978C655.134 129.224 656.66 132.548 658.939 134.801C669.298 145.022 694.675 141.221 694.91 160.904C694.963 165.489 693.978 170.454 690.678 173.83C689.849 174.676 689.085 175.272 687.979 175.722C686.442 175.002 686.016 173.526 685.201 172.067C687.396 169.126 689.245 165.307 688.64 161.516C688.064 157.894 685.457 155.412 682.563 153.422C672.787 146.7 651.959 145.312 648.918 131.356C647.414 124.449 652.531 120.381 652.151 115.542Z" fill="#FEFEFE"/>
<path d="M1121.52 115.56C1129.97 111.557 1137.32 108.592 1146.7 111.934C1149.81 113.041 1151.85 117.074 1155.04 115.946L1157.54 111.277L1158.57 111.076C1160.68 114.691 1160.66 122.591 1159.56 126.619C1159.34 127.436 1158.99 128.189 1158.59 128.927L1157.57 128.955C1153.46 123.763 1148.17 115.143 1141.14 114.331C1137.26 113.884 1132.2 114.524 1129.14 117.1C1126.82 119.058 1124.34 123.486 1124.19 126.543C1124.04 129.269 1125.15 131.597 1127.02 133.528C1136.32 143.12 1165.02 143.317 1165.06 160.438C1165.07 164.479 1162.95 171.168 1160.11 173.966C1159.31 174.754 1158.45 175.295 1157.4 175.709C1155.84 175.003 1155.42 173.52 1154.61 172.052C1156.84 169.278 1158.45 165.584 1158.06 161.942C1157.7 158.644 1155.6 156.243 1153.05 154.29C1143.21 146.75 1120.3 145.34 1118.13 130.398C1117.27 124.468 1121.86 119.678 1121.52 115.56Z" fill="#FEFEFE"/>
<path d="M653.296 234.189L652.503 232.449C650.385 231.908 648.262 231.388 646.134 230.887L645.764 229.421C649.494 227.45 658.996 228.286 662.929 229.61C667.965 231.311 690.158 274.779 693.597 282.461C694.333 284.104 694.796 285.499 694.703 287.321C695.596 285.716 696.414 283.951 696.655 282.112C697.598 274.889 698.341 240.27 696.737 234.324C696.588 233.769 696.303 233.243 696.001 232.755C693.313 231.969 690.247 231.876 688.295 229.895C691.944 227.674 703.725 228.226 708.131 229.09C708.842 229.229 709.55 229.51 710.211 229.795C709.433 231.453 707.594 231.919 705.898 232.542C704.429 233.083 702.836 233.442 701.325 233.826C702.889 238.473 703.074 293.078 701.385 296.732C701.09 297.365 700.702 297.895 700.236 298.415C698.266 298.721 697.84 298.767 696.225 297.557C689.621 292.601 672.644 256.903 667.517 247.265C665.987 244.393 663.818 238.804 661.649 236.591C660.582 235.506 659.032 235.712 657.687 235.769C655.892 238.946 656.756 246.158 656.685 249.994C655.166 246.059 657.414 241.024 656.272 236.861C655.81 235.175 654.746 235.004 653.296 234.189Z" fill="#FEFEFE"/>
<path d="M766.95 111.185C778.02 110.58 791.17 109.539 801.718 113.523C806.184 115.212 810.043 118.197 811.942 122.686C813.94 127.4 813.492 132.985 811.551 137.647C808.759 144.348 804.417 147.353 797.995 150.046C806.223 155.722 806.764 167.126 813.254 174.037C815.252 176.163 818.403 177.962 820.814 179.696L820.107 180.63C818.158 180.994 816.223 181.25 814.235 181.161C803.652 180.689 804.175 168.356 798.261 162.265C798.14 162.138 798.012 162.016 797.888 161.892C798.187 158.498 794.481 153.234 792.379 150.72C787.78 150.534 783.18 150.38 778.578 150.259C780.69 157.394 777.966 170.868 779.289 174.813C780.328 177.915 785.946 176.636 787.607 179.627C785.996 181.184 783.834 180.92 781.651 180.962C777.49 181.044 766.345 182.064 763.436 179.269C764.745 177.7 768.212 177.142 770.193 176.567C770.531 176.129 771.349 175.324 771.523 174.846C772.152 173.087 772.252 124.865 771.95 120.535C771.281 110.943 767.113 117.192 762.227 112.975C763.344 111.353 765.065 111.535 766.95 111.185ZM780.25 114.742C775.886 120.64 783.009 138.094 777.49 146.681C782.963 146.518 794.826 147.373 798.937 143.409C799.296 143.063 799.275 143.057 799.492 142.695C802.361 141.188 803.919 139.619 804.933 136.482C806.259 132.358 806.316 126.426 804.296 122.539C802.593 119.266 799.574 117.505 796.121 116.508C791.106 115.057 785.438 114.994 780.25 114.742Z" fill="#FEFEFE"/>
<path d="M319.369 23.0222C354.179 16.975 411.216 34.2199 441.774 50.8686C507.651 86.7611 551.114 146.931 563.966 220.854C565.794 231.364 567.238 242.316 567.28 253C567.316 262.991 565.591 274.636 567.572 284.4C569.436 293.569 575.901 301.588 578.603 310.775C572.327 302.734 566.69 293.786 558.07 288.05C545.307 279.564 529.65 277.092 514.725 280.169C495.756 284.079 485.212 296.17 475.038 311.597C483.786 317.692 489.81 324.271 495.482 333.287C485.404 325.285 476.51 317.258 463.296 315.184C452.82 313.536 441.102 316.379 432.304 322.236C429.068 324.385 425.548 327.448 421.821 328.594C411.11 331.885 399.566 329.697 389.912 336.798C381.292 343.135 378.486 354.855 376.953 364.818C358.568 360.897 347.165 364.562 336.089 379.918C333.927 382.914 331.694 386.703 328.374 388.5C321.607 392.158 310.656 380.26 304.964 377.008C301.897 375.257 298.092 374.346 294.714 373.35C289.624 371.333 285.353 367.7 281.058 364.387C267.664 354.058 254.857 349.59 237.682 352.365C231.525 353.357 216.659 360.335 214.707 360.246L215.069 358.787C223.953 351.803 231.48 349.575 242.131 346.999C239.505 341.303 236.922 335.464 233.833 330.006C232.95 328.436 231.992 326.914 230.957 325.441C229.923 323.968 228.817 322.55 227.641 321.186C226.465 319.824 225.223 318.525 223.917 317.286C222.61 316.046 221.246 314.875 219.822 313.775C218.398 312.672 216.924 311.643 215.397 310.69C213.871 309.736 212.301 308.861 210.687 308.064C209.073 307.267 207.423 306.552 205.738 305.919C204.052 305.288 202.34 304.742 200.6 304.282C198.84 303.796 197.06 303.397 195.26 303.086C193.46 302.773 191.65 302.55 189.828 302.417C188.007 302.287 186.183 302.245 184.357 302.293C182.532 302.34 180.713 302.478 178.9 302.706C177.088 302.931 175.292 303.246 173.511 303.652C171.73 304.058 169.973 304.549 168.241 305.125C166.508 305.704 164.808 306.366 163.141 307.11C161.474 307.858 159.847 308.684 158.261 309.59C140.577 319.884 134.025 334.98 129.01 353.831C140.975 363.747 148.509 367.568 155.994 382.135C149.875 377.036 145.245 370.486 138.757 365.736C132.602 361.235 124.096 361.434 118.04 356.923C107.881 349.358 98.8573 301.564 97.2468 288.064C89.5068 223.202 107.446 162.505 147.817 111.259C192.074 55.0813 249.798 31.2625 319.369 23.0222ZM341.711 144.254C327.544 156.567 309.994 171.403 294.602 181.907L293.718 181.274L293.946 182.464L290.296 184.042L289.274 183.026C289.404 180.233 289.549 177.44 289.709 174.649C283.262 174.448 264.546 172.043 260.141 176.131C257.239 184.301 261.043 194.914 259.943 203.629C259.596 206.38 258.913 209.4 257.132 211.592C252.721 217.018 213.041 247.642 205.842 251.958C222.72 251.52 239.884 250.912 256.73 252.146C257.084 270.024 257.198 287.904 257.072 305.787C257.059 318.603 257.617 331.821 255.936 344.541C273.234 349.483 280.887 356.012 295.95 363.633C306.268 368.856 316.033 371.144 324.958 378.986L326.541 379.231C329.514 375.72 331.198 371.244 334.132 367.597C341.874 357.976 358.774 356.033 370.14 354.916C373.753 342.78 378.582 332.781 390.182 326.53C400.32 321.069 423.777 322.314 427.144 310.555C430.473 298.931 427.358 263.66 428.108 248.905C442.685 248.748 458.019 247.681 472.432 249.883C458.203 238.064 347.792 145.642 341.711 144.254ZM158.435 126.418C157.799 131.824 157.854 140.983 153.144 144.604C148.282 148.343 138.611 147.819 132.56 149.67C138.582 150.465 144.549 150.896 150.608 151.217C152.578 152.812 154.792 154.364 156.456 156.28L158.438 171.5C164.354 164.234 156.001 152.623 170.463 151.096C175.101 150.607 179.802 150.799 184.422 150.151C177.216 148.393 168.743 147.313 162.087 144.208C161.317 139.326 161.354 129.979 158.435 126.418ZM526.143 224.984C525.713 229.866 525.98 238.341 521.943 241.654C517.879 244.991 508.398 244.625 503.21 245.884C510.059 246.962 519.671 247.371 524.529 253.029C526.67 258.23 522.324 262.514 527.843 266.941C528.355 262.201 528.259 253.054 532.221 249.94C536.57 246.528 545.617 247.492 551.022 246.507C544.052 244.859 534.166 244.013 529.077 238.412C527.754 234.459 531.289 227.745 526.143 224.984ZM482.417 110.438C480.465 112.616 479.323 113.563 478.744 116.524C480.298 118.238 481.471 118.906 483.832 119.331C485.959 117.481 486.869 117.183 487.413 114.353C486.332 112.477 484.394 111.252 482.417 110.438Z" fill="#FEFEFE"/>
<path d="M346.47 233.691C349.148 233.492 353.103 232.876 355.655 233.766C357.551 234.427 358.92 236.612 359.709 238.348C361.313 241.874 360.033 250.367 358.682 253.986C354.075 253.399 349.315 253.395 344.672 253.203C343.88 246.873 342.69 239.259 346.47 233.691Z" fill="#FEFEFE"/>
<path d="M345.878 257.384C350.383 257.374 354.888 257.332 359.393 257.256C359.752 263.133 361.224 271.687 357.824 276.768C354.792 277.394 350.555 278.629 347.617 277.362C345.811 276.583 344.641 274.974 343.93 273.192C342.32 269.161 344.263 261.301 345.878 257.384Z" fill="#FEFEFE"/>
<path d="M327.243 233.769C329.573 233.516 331.959 233.299 334.305 233.314C336.437 233.331 337.922 233.798 339.404 235.363C341.122 237.174 341.972 239.529 341.882 242.013C341.751 245.614 341.357 250.78 338.695 253.199C334.093 253.324 329.588 253.715 325.017 254.242C324.779 247.773 323.451 239.341 327.243 233.769Z" fill="#FEFEFE"/>
<path d="M325.943 257.529L341.37 257.103C341.371 263.653 341.61 270.644 339.618 276.942C336.804 277.479 332.806 278.536 330.026 277.931C328.025 277.497 326.721 276.334 325.635 274.665C323.02 270.648 325.026 262.062 325.943 257.529Z" fill="#FEFEFE"/>
</svg>
